<svg xmlns="http://www.w3.org/2000/svg" xmlns:xlink="http://www.w3.org/1999/xlink" width="400" zoomAndPan="magnify" viewBox="0 0 300 299.999988" height="400" preserveAspectRatio="xMidYMid meet" version="1.0"><defs><clipPath id="8084ad551e"><path d="M 4 10.492188 L 296 10.492188 L 296 289 L 4 289 Z M 4 10.492188 " clip-rule="nonzero"/></clipPath></defs><path fill="#000000" d="M 130.769531 165.492188 L 182.496094 165.492188 C 193.167969 165.492188 201.894531 156.773438 201.894531 146.117188 L 201.894531 139.65625 C 201.894531 122.21875 191.875 107.042969 177.648438 99.617188 C 184.761719 93.804688 188.964844 84.761719 188.964844 75.074219 C 188.964844 57.3125 174.414062 42.78125 156.632812 42.78125 C 138.851562 42.78125 124.304688 57.3125 124.304688 75.074219 C 124.304688 84.761719 128.828125 93.804688 135.617188 99.617188 C 121.070312 107.042969 111.371094 122.21875 111.371094 139.65625 L 111.371094 146.117188 C 111.371094 156.773438 120.101562 165.492188 130.769531 165.492188 Z M 156.632812 55.699219 C 167.300781 55.699219 176.03125 64.417969 176.03125 75.074219 C 176.03125 85.730469 167.300781 94.449219 156.632812 94.449219 C 145.964844 94.449219 137.234375 85.730469 137.234375 75.074219 C 137.234375 64.417969 145.964844 55.699219 156.632812 55.699219 Z M 124.304688 139.65625 C 124.304688 121.898438 138.851562 107.367188 156.632812 107.367188 C 174.414062 107.367188 188.964844 121.898438 188.964844 139.65625 L 188.964844 146.117188 C 188.964844 149.667969 186.054688 152.574219 182.496094 152.574219 L 130.769531 152.574219 C 127.210938 152.574219 124.304688 149.667969 124.304688 146.117188 Z M 124.304688 139.65625 " fill-opacity="1" fill-rule="nonzero"/><g clip-path="url(#8084ad551e)"><path fill="#000000" d="M 293.390625 175.179688 L 292.746094 174.53125 C 282.722656 165.8125 269.46875 162.90625 257.503906 165.8125 C 263.324219 152.25 266.558594 137.398438 266.558594 121.898438 C 266.558594 60.542969 217.414062 10.492188 156.632812 10.492188 C 95.851562 10.492188 46.710938 60.542969 46.710938 121.898438 C 46.710938 141.59375 51.882812 160 60.613281 176.148438 C 60.289062 176.148438 59.964844 176.148438 59.640625 176.148438 L 20.84375 182.605469 C 15.671875 183.574219 11.144531 186.15625 8.234375 190.355469 C 5.328125 194.554688 4.03125 199.71875 5.003906 204.886719 L 15.996094 271.730469 C 17.613281 282.386719 27.632812 289.492188 38.304688 287.554688 L 86.800781 279.480469 C 87.769531 279.480469 88.414062 279.480469 89.386719 279.480469 L 125.273438 287.875 C 126.566406 288.199219 128.183594 288.523438 129.800781 288.523438 C 130.769531 288.523438 131.738281 288.523438 133.03125 288.199219 L 206.746094 275.929688 C 211.273438 275.28125 215.152344 273.023438 218.0625 269.46875 L 294.039062 183.574219 C 296.300781 181.636719 295.976562 177.4375 293.390625 175.179688 Z M 59.640625 121.898438 C 59.640625 67.648438 103.289062 23.40625 156.632812 23.40625 C 209.980469 23.40625 253.625 67.648438 253.625 121.898438 C 253.625 147.40625 243.925781 170.65625 228.40625 188.09375 L 225.175781 191.648438 C 220.972656 195.84375 216.445312 199.71875 211.917969 202.949219 C 204.160156 189.386719 188.316406 181.3125 172.152344 184.21875 L 121.394531 192.617188 C 120.101562 192.9375 119.128906 192.617188 117.835938 192.292969 L 87.121094 179.699219 C 83.566406 178.085938 79.6875 177.117188 75.808594 176.46875 C 65.460938 160.648438 59.640625 141.917969 59.640625 121.898438 Z M 208.039062 261.71875 C 207.070312 263.011719 205.777344 263.65625 204.160156 263.980469 L 130.769531 275.929688 C 129.800781 275.929688 129.152344 275.929688 128.183594 275.929688 L 92.296875 267.53125 C 90.679688 267.210938 89.386719 266.886719 87.769531 266.886719 C 86.800781 266.886719 85.828125 266.886719 84.535156 267.210938 L 36.039062 275.28125 C 32.484375 275.929688 29.25 273.34375 28.605469 269.792969 L 17.613281 202.949219 C 17.289062 201.335938 17.613281 199.398438 18.90625 198.105469 C 19.875 196.8125 21.492188 195.84375 23.109375 195.523438 L 61.90625 189.0625 C 68.695312 188.09375 75.808594 188.742188 82.273438 191.324219 L 112.988281 203.917969 C 116.21875 205.210938 120.101562 205.53125 123.332031 205.210938 L 174.09375 196.8125 C 186.054688 194.875 197.371094 201.335938 201.894531 211.992188 L 154.695312 219.742188 C 151.136719 220.386719 148.875 223.617188 149.519531 227.167969 C 150.167969 230.71875 153.398438 232.980469 156.957031 232.65625 L 211.273438 223.617188 C 211.917969 223.617188 212.566406 223.292969 213.210938 222.96875 C 213.859375 222.648438 214.503906 222 215.152344 221.355469 L 248.453125 185.835938 C 256.859375 176.792969 269.789062 175.179688 279.8125 180.992188 Z M 208.039062 261.71875 " fill-opacity="1" fill-rule="nonzero"/></g></svg>